<svg width="334" height="284" viewBox="0 0 334 284" fill="none" xmlns="http://www.w3.org/2000/svg">
<g opacity="0.5">
<circle cx="53.7435" cy="123.578" r="1.15922" transform="rotate(-76.2652 53.7435 123.578)" fill="white"/>
<circle cx="75.4634" cy="110.388" r="0.579911" transform="rotate(-76.2652 75.4634 110.388)" fill="white"/>
<circle cx="34.825" cy="81.3621" r="0.579911" transform="rotate(-76.2652 34.825 81.3621)" fill="white"/>
<circle cx="137.944" cy="64.7556" r="0.579911" transform="rotate(-76.2652 137.944 64.7556)" fill="white"/>
<circle cx="111.299" cy="80.9611" r="0.579911" transform="rotate(-76.2652 111.299 80.9611)" fill="white"/>
<circle cx="82.7725" cy="82.9389" r="1.15922" transform="rotate(-76.2652 82.7725 82.9389)" fill="white"/>
<circle cx="56.8961" cy="79.0053" r="1.15922" transform="rotate(-76.2652 56.8961 79.0053)" fill="white"/>
<circle cx="113.248" cy="51.0049" r="1.15922" transform="rotate(-76.2652 113.248 51.0049)" fill="white"/>
<circle cx="102.49" cy="116.993" r="0.579911" transform="rotate(-76.2652 102.49 116.993)" fill="white"/>
<circle cx="104.593" cy="88.8688" r="0.579911" transform="rotate(-76.2652 104.593 88.8688)" fill="white"/>
<circle cx="84.1982" cy="65.2069" r="0.579911" transform="rotate(-76.2652 84.1982 65.2069)" fill="white"/>
<circle cx="57.3453" cy="86.8678" r="0.579911" transform="rotate(-76.2652 57.3453 86.8678)" fill="white"/>
<circle cx="124.582" cy="118.048" r="1.17526" transform="rotate(-9.69464 124.582 118.048)" fill="white"/>
<circle cx="145.611" cy="132.939" r="0.587934" transform="rotate(-9.69464 145.611 132.939)" fill="white"/>
<circle cx="156.23" cy="83.4297" r="0.587934" transform="rotate(-9.69464 156.23 83.4297)" fill="white"/>
<circle cx="208.899" cy="112.586" r="0.587934" transform="rotate(-9.69464 208.899 112.586)" fill="white"/>
<circle cx="187.432" cy="154.407" r="0.587934" transform="rotate(-9.69464 187.432 154.407)" fill="white"/>
<circle cx="174.089" cy="128.669" r="1.17526" transform="rotate(-9.69464 174.089 128.669)" fill="white"/>
<circle cx="195.558" cy="86.846" r="1.17526" transform="rotate(-9.69464 195.558 86.846)" fill="white"/>
<circle cx="216.08" cy="144.146" r="1.17526" transform="rotate(-9.69464 216.08 144.146)" fill="white"/>
<circle cx="150.36" cy="160.739" r="0.587934" transform="rotate(-9.69464 150.36 160.739)" fill="white"/>
<circle cx="177.371" cy="151.357" r="0.587934" transform="rotate(-9.69464 177.371 151.357)" fill="white"/>
<circle cx="185.613" cy="87.9493" r="0.587934" transform="rotate(-9.69464 185.613 87.9493)" fill="white"/>
<circle cx="160.187" cy="106.601" r="0.587934" transform="rotate(-9.69464 160.187 106.601)" fill="white"/>
<circle cx="262.621" cy="208.854" r="1.28252" transform="rotate(-71.272 262.621 208.854)" fill="white"/>
<circle cx="284.962" cy="204.102" r="0.641591" transform="rotate(-71.272 284.962 204.102)" fill="white"/>
<circle cx="242.966" cy="168.197" r="0.641591" transform="rotate(-71.272 242.966 168.197)" fill="white"/>
<circle cx="298.306" cy="132.791" r="0.641591" transform="rotate(-71.272 298.306 132.791)" fill="white"/>
<circle cx="327.289" cy="175.117" r="0.641591" transform="rotate(-71.272 327.289 175.117)" fill="white"/>
<circle cx="295.655" cy="174.551" r="1.28252" transform="rotate(-71.272 295.655 174.551)" fill="white"/>
<circle cx="265.171" cy="123.439" r="1.28252" transform="rotate(-71.272 265.171 123.439)" fill="white"/>
<circle cx="332.326" cy="142.294" r="1.28252" transform="rotate(-71.272 332.326 142.294)" fill="white"/>
<circle cx="314.11" cy="213.984" r="0.641591" transform="rotate(-71.272 314.11 213.984)" fill="white"/>
<circle cx="319.139" cy="183.189" r="0.641591" transform="rotate(-71.272 319.139 183.189)" fill="white"/>
<circle cx="262.565" cy="142.342" r="0.641591" transform="rotate(-71.272 262.565 142.342)" fill="white"/>
<circle cx="267.259" cy="176.432" r="0.641591" transform="rotate(-71.272 267.259 176.432)" fill="white"/>
<circle cx="121.985" cy="256.725" r="1.42169" transform="rotate(-130.143 121.985 256.725)" fill="white"/>
<circle cx="124.626" cy="225.675" r="0.711211" transform="rotate(-130.143 124.626 225.675)" fill="white"/>
<circle cx="66.4881" cy="244.945" r="0.711211" transform="rotate(-130.143 66.4881 244.945)" fill="white"/>
<circle cx="64.6036" cy="172.145" r="0.711211" transform="rotate(-130.143 64.6036 172.145)" fill="white"/>
<circle cx="121.378" cy="168.899" r="0.711211" transform="rotate(-130.143 121.378 168.899)" fill="white"/>
<circle cx="102.714" cy="198.59" r="1.42169" transform="rotate(-130.143 102.714 198.59)" fill="white"/>
<circle cx="42.1437" cy="182.132" r="1.42169" transform="rotate(-130.143 42.1437 182.132)" fill="white"/>
<circle cx="96.671" cy="166.116" r="1.42169" transform="rotate(-130.143 96.671 166.116)" fill="white"/>
<circle cx="150.706" cy="203.675" r="0.711211" transform="rotate(-130.143 150.706 203.675)" fill="white"/>
<circle cx="124.364" cy="181.259" r="0.711211" transform="rotate(-130.143 124.364 181.259)" fill="white"/>
<circle cx="74.1118" cy="201.906" r="0.711211" transform="rotate(-130.143 74.1118 201.906)" fill="white"/>
<circle cx="88.2224" cy="226.617" r="0.711211" transform="rotate(-130.143 88.2224 226.617)" fill="white"/>
<circle cx="169.755" cy="111.527" r="2.5006" fill="#F9DD66"/>
<circle cx="105.74" cy="132.532" r="6.50156" fill="#FFF2BA" fill-opacity="0.32"/>
<circle cx="131.746" cy="45.511" r="14.5035" fill="#FFF2BA" fill-opacity="0.26"/>
</g>
</svg>
