<svg width="24" height="24" viewBox="0 0 24 24" fill="none" xmlns="http://www.w3.org/2000/svg">
<rect width="24" height="24" fill="white"/>
<path d="M8.71 7.70501L11 5.40501V14.995C11 15.2602 11.1054 15.5146 11.2929 15.7021C11.4804 15.8897 11.7348 15.995 12 15.995C12.2652 15.995 12.5196 15.8897 12.7071 15.7021C12.8946 15.5146 13 15.2602 13 14.995V5.40501L15.29 7.70501C15.383 7.79874 15.4936 7.87314 15.6154 7.9239C15.7373 7.97467 15.868 8.00081 16 8.00081C16.132 8.00081 16.2627 7.97467 16.3846 7.9239C16.5064 7.87314 16.617 7.79874 16.71 7.70501C16.8037 7.61205 16.8781 7.50145 16.9289 7.37959C16.9797 7.25773 17.0058 7.12703 17.0058 6.99501C17.0058 6.863 16.9797 6.7323 16.9289 6.61044C16.8781 6.48858 16.8037 6.37798 16.71 6.28501L12.71 2.28501C12.6149 2.19397 12.5028 2.12261 12.38 2.07501C12.1365 1.975 11.8635 1.975 11.62 2.07501C11.4972 2.12261 11.3851 2.19397 11.29 2.28501L7.29 6.28501C7.19676 6.37825 7.1228 6.48894 7.07234 6.61076C7.02188 6.73259 6.99591 6.86315 6.99591 6.99501C6.99591 7.12687 7.02188 7.25744 7.07234 7.37926C7.1228 7.50108 7.19676 7.61178 7.29 7.70501C7.38324 7.79825 7.49393 7.87221 7.61575 7.92267C7.73757 7.97313 7.86814 7.9991 8 7.9991C8.13186 7.9991 8.26243 7.97313 8.38425 7.92267C8.50607 7.87221 8.61676 7.79825 8.71 7.70501ZM21 13.995C20.7348 13.995 20.4804 14.1004 20.2929 14.2879C20.1054 14.4754 20 14.7298 20 14.995V18.995C20 19.2602 19.8946 19.5146 19.7071 19.7021C19.5196 19.8897 19.2652 19.995 19 19.995H5C4.73478 19.995 4.48043 19.8897 4.29289 19.7021C4.10536 19.5146 4 19.2602 4 18.995V14.995C4 14.7298 3.89464 14.4754 3.70711 14.2879C3.51957 14.1004 3.26522 13.995 3 13.995C2.73478 13.995 2.48043 14.1004 2.29289 14.2879C2.10536 14.4754 2 14.7298 2 14.995V18.995C2 19.7907 2.31607 20.5537 2.87868 21.1163C3.44129 21.6789 4.20435 21.995 5 21.995H19C19.7956 21.995 20.5587 21.6789 21.1213 21.1163C21.6839 20.5537 22 19.7907 22 18.995V14.995C22 14.7298 21.8946 14.4754 21.7071 14.2879C21.5196 14.1004 21.2652 13.995 21 13.995Z" fill="black"/>
</svg>
